<svg width="66" height="58" viewBox="0 0 66 58" fill="none" xmlns="http://www.w3.org/2000/svg">
<path d="M57.9999 5.99995L58.1044 42.7381L54.7744 46.1987L4.45429 46.3419L1.10464 42.9002L1.00012 6.16211L57.9999 5.99995Z" fill="#474F54"/>
<path d="M64.9807 0.233861L65.0852 36.972L61.7552 40.4327L36.5952 40.5042L36.4808 0.314941L64.9807 0.233861Z" fill="#32393F"/>
<path d="M28.2601 45.649L44.9593 45.6015L44.9878 55.621L28.2886 55.6685L28.2601 45.649Z" fill="#DADAE5"/>
<path d="M36.6097 45.6252L44.9593 45.6015L44.9878 55.621L36.6382 55.6447L36.6097 45.6252Z" fill="#C9C9D3"/>
<path d="M8.08545 37.1342L65.0852 36.972L65.1144 47.2141L8.11459 47.3763L8.08545 37.1342Z" fill="#EFEFF4"/>
<path d="M36.5853 37.0531L65.0852 36.972L65.1144 47.2142L36.6145 47.2952L36.5853 37.0531Z" fill="#DADAE5"/>
<path d="M21.6042 54.0176L51.6627 53.9321L51.6722 57.2719L21.6137 57.3574L21.6042 54.0176Z" fill="#EFEFF4"/>
<path d="M36.6335 53.9749L51.6628 53.9321L51.6723 57.2719L36.643 57.3147L36.6335 53.9749Z" fill="#DADAE5"/>
<path fill-rule="evenodd" clip-rule="evenodd" d="M14.8241 18.7457C14.8058 12.3009 20.0355 7.04135 26.4803 7.02302C32.9251 7.00468 38.1846 12.2343 38.203 18.6792C38.2213 25.124 32.9916 30.3835 26.5468 30.4018C20.102 30.4202 14.8425 25.1905 14.8241 18.7457ZM21.5038 18.7267C21.5117 21.489 23.7655 23.73 26.5278 23.7222C29.2901 23.7143 31.5312 21.4605 31.5233 18.6982C31.5154 15.9359 29.2616 13.6948 26.4993 13.7027C23.737 13.7105 21.496 15.9644 21.5038 18.7267Z" fill="#549EF2"/>
<path d="M48.1893 6.9613L58.3201 6.93248L58.3297 10.2723L48.1988 10.3011L48.1893 6.9613Z" fill="#377FD2"/>
<path d="M41.5096 6.98035L44.8495 6.97085L44.859 10.3107L41.5191 10.3202L41.5096 6.98035Z" fill="#377FD2"/>
<path d="M48.2273 20.3207L58.3581 20.2919L58.3676 23.6317L48.2368 23.6605L48.2273 20.3207Z" fill="#377FD2"/>
<path d="M41.5476 20.3397L44.8874 20.3302L44.8969 23.6701L41.5571 23.6796L41.5476 20.3397Z" fill="#377FD2"/>
<path d="M41.5287 13.66L58.3392 13.6122L58.3487 16.952L41.5382 16.9999L41.5287 13.66Z" fill="#377FD2"/>
<path d="M41.5667 27.0193L58.3771 26.9715L58.3866 30.3113L41.5762 30.3591L41.5667 27.0193Z" fill="#377FD2"/>
</svg>
