<svg width="58" height="58" viewBox="0 0 58 58" fill="none" xmlns="http://www.w3.org/2000/svg">
<path d="M23.9045 47.1991L33.924 47.1706L33.9529 57.3014L23.9334 57.3299L23.9045 47.1991Z" fill="#676E74"/>
<path d="M28.9142 47.1849L33.9239 47.1706L33.9528 57.3014L28.943 57.3157L28.9142 47.1849Z" fill="#333637"/>
<path d="M20.5504 42.1989L37.2496 42.1513L37.2733 50.5009L20.5742 50.5484L20.5504 42.1989Z" fill="#4C545A"/>
<path d="M28.9 42.1751L37.2496 42.1514L37.2734 50.5009L28.9238 50.5247L28.9 42.1751Z" fill="#52585C"/>
<path d="M40.4629 32.9911C38.3973 34.7004 37.2352 37.1081 37.2424 39.613L37.2496 42.1514L20.5504 42.1989L20.5432 39.6605C20.536 37.1222 19.4269 34.7544 17.5863 33.3232C13.0675 29.8292 10.4807 24.5598 10.4644 18.8486C10.4487 13.3044 12.9052 8.08754 17.204 4.56802C20.5027 1.88675 24.5392 0.327973 28.7809 0.315905C30.0834 0.3122 31.4197 0.441906 32.7229 0.705647C39.9413 2.18805 45.6361 8.19446 46.9263 15.5054C48.0808 22.1819 45.6946 28.7344 40.4629 32.9911Z" fill="#FFDA2D"/>
<path d="M40.4629 32.9911C38.3973 34.7004 37.2352 37.1081 37.2423 39.613L37.2495 42.1514L28.9 42.1751L28.7809 0.315918C30.0833 0.312213 31.4196 0.441918 32.7229 0.70566C39.9412 2.18806 45.6361 8.19447 46.9263 15.5054C48.0808 22.1819 45.6945 28.7344 40.4629 32.9911Z" fill="#FDBF00"/>
<path d="M17.2058 40.5385L40.5846 40.4719L40.5941 43.8118L17.2153 43.8783L17.2058 40.5385Z" fill="#676E74"/>
<path d="M35.892 9.32891L38.2601 11.6836L34.7268 15.237L32.3587 12.8823L35.892 9.32891Z" fill="#FF9100"/>
<path d="M22.9401 22.3547L25.3082 24.7093L21.7745 28.2632L19.4064 25.9085L22.9401 22.3547Z" fill="#FDBF00"/>
<path d="M27.1825 25.4807L30.5223 25.4712L30.5366 30.481L27.1967 30.4905L27.1825 25.4807Z" fill="#FDBF00"/>
<path d="M34.747 22.3211L38.3004 25.8548L35.9458 28.2229L32.3923 24.6892L34.747 22.3211Z" fill="#FF9100"/>
<path d="M35.5084 17.1074L40.5182 17.0931L40.5277 20.4329L35.5179 20.4472L35.5084 17.1074Z" fill="#FF9100"/>
<path d="M21.7207 9.36926L25.2746 12.903L22.92 15.2706L19.3661 11.7373L21.7207 9.36926Z" fill="#FDBF00"/>
<path d="M17.1393 17.1596L22.149 17.1454L22.1585 20.4852L17.1488 20.4994L17.1393 17.1596Z" fill="#FDBF00"/>
<path d="M27.1302 7.11163L30.4701 7.10213L30.4843 12.1119L27.1445 12.1214L27.1302 7.11163Z" fill="#FDBF00"/>
<path d="M0.328735 17.2075L7.11972 17.1881L7.12923 20.528L0.338237 20.5473L0.328735 17.2075Z" fill="#FFDA2D"/>
<path d="M6.18316 13.5705L1.05258 10.2452L2.89724 7.4611L8.02781 10.7864L6.18316 13.5705Z" fill="#FFDA2D"/>
<path d="M2.96213 30.2789L1.10166 27.5054L6.21324 24.151L8.0737 26.9245L2.96213 30.2789Z" fill="#FFDA2D"/>
<path d="M50.5376 17.0646L57.3286 17.0453L57.3381 20.3851L50.5471 20.4045L50.5376 17.0646Z" fill="#FDBF00"/>
<path d="M54.7696 30.1315L49.639 26.8062L51.4837 24.0221L56.6142 27.3474L54.7696 30.1315Z" fill="#FDBF00"/>
<path d="M51.4536 13.4417L49.5931 10.6681L54.7047 7.31368L56.5652 10.0873L51.4536 13.4417Z" fill="#FDBF00"/>
<path d="M28.8002 7.10687L30.4701 7.10212L30.4843 12.1119L28.8144 12.1166L28.8002 7.10687Z" fill="#FF9100"/>
<path d="M28.8524 25.476L30.5223 25.4712L30.5366 30.4809L28.8667 30.4857L28.8524 25.476Z" fill="#FF9100"/>
<path d="M28.8953 40.5052L40.5847 40.4719L40.5942 43.8118L28.9048 43.845L28.8953 40.5052Z" fill="#333637"/>
<path d="M28.8097 10.4467C24.2009 10.4598 20.4707 14.2112 20.4838 18.82C20.4969 23.4288 24.2484 27.159 28.8572 27.1459C33.466 27.1327 37.1961 23.3813 37.183 18.7725C37.1699 14.1637 33.4185 10.4336 28.8097 10.4467Z" fill="#FDBF00"/>
<path d="M28.8572 27.1459L28.8097 10.4467C33.4185 10.4336 37.1699 14.1637 37.183 18.7725C37.1961 23.3813 33.466 27.1328 28.8572 27.1459Z" fill="#FF9100"/>
<path d="M27.1588 17.1311L30.4986 17.1216L30.5081 20.4614L27.1683 20.4709L27.1588 17.1311Z" fill="#FFDA2D"/>
<path d="M28.8287 17.1263L30.4987 17.1216L30.5082 20.4614L28.8382 20.4662L28.8287 17.1263Z" fill="#FDBF00"/>
</svg>
