<svg width="61" height="60" viewBox="0 0 61 60" fill="none" xmlns="http://www.w3.org/2000/svg">
<path d="M52.5239 7.63017C44.0157 -0.8627 30.3217 -0.790256 21.8619 7.7174C14.7346 14.8858 13.4967 25.9447 18.7981 34.4471L16.5667 36.7244L15.3746 42.2003L19.1387 45.943L23.6679 43.7853L25.8993 41.5076C34.4317 46.761 45.484 45.4936 52.6112 38.2922C61.104 29.7841 61.0316 16.09 52.5239 7.63017Z" fill="#676E74"/>
<path d="M23.6679 43.7853L25.8993 41.5076C34.4318 46.761 45.4836 45.4937 52.6112 38.2922C61.1041 29.7841 61.0316 16.09 52.524 7.63017L16.7702 43.588L19.1383 45.943L23.6679 43.7853Z" fill="#474F54"/>
<path d="M50.1893 9.97818C46.8557 6.66303 42.2571 4.62001 37.1843 4.63444C27.0387 4.66331 18.8374 12.9115 18.8662 23.0571C18.8807 28.1299 20.9498 32.7167 24.2834 36.0319C27.6175 39.3466 32.2161 41.3896 37.2889 41.3752C47.4345 41.3463 55.6358 33.0982 55.607 22.9526C55.5925 17.8798 53.5234 13.2929 50.1893 9.97818Z" fill="#64E1DC"/>
<path d="M55.6069 22.9526C55.5925 17.8798 53.5233 13.2929 50.1893 9.97818L24.2834 36.0319C27.6175 39.3466 32.216 41.3896 37.2888 41.3752C47.4344 41.3463 55.6358 33.0982 55.6069 22.9526Z" fill="#00C8C8"/>
<path d="M52.0281 22.1065C51.8634 21.833 49.3617 17.737 45.5225 14.6716C43.1745 12.7961 40.3275 11.3057 37.2033 11.3145C28.9721 11.338 22.7033 21.7481 22.4402 22.1906L21.9304 23.0484L22.4451 23.9032C22.6098 24.1771 25.1111 28.2731 28.9502 31.3385C31.2987 33.2135 34.1457 34.704 37.2699 34.6951C45.5012 34.6717 51.7699 24.2616 52.033 23.819L52.5424 22.9613L52.0281 22.1065Z" fill="#EFEFF4"/>
<path d="M52.033 23.819L52.5424 22.9613L52.0281 22.1065C51.8634 21.833 49.3616 17.737 45.5225 14.6716L28.9502 31.3385C31.2987 33.2135 34.1457 34.704 37.2699 34.6951C45.5011 34.6717 51.7699 24.2616 52.033 23.819Z" fill="#DADAE5"/>
<path d="M40.7677 19.454C39.858 18.549 38.6035 17.9907 37.2223 17.9947C34.4596 18.0025 32.2186 20.2563 32.2264 23.0191C32.2303 24.4007 32.7958 25.6515 33.7055 26.5561C34.6157 27.4607 35.8693 28.0189 37.2508 28.015C40.0136 28.0072 42.2546 25.7533 42.2468 22.9906C42.2428 21.6094 41.6774 20.3586 40.7677 19.454Z" fill="#64E1DC"/>
<path d="M42.2467 22.9906C42.2428 21.6094 41.6774 20.3586 40.7677 19.454L33.7055 26.5561C34.6152 27.4606 35.8692 28.0189 37.2508 28.015C40.0136 28.0071 42.2546 25.7533 42.2467 22.9906Z" fill="#00C8C8"/>
<path d="M38.4139 21.8208C38.1108 21.5194 37.6928 21.3336 37.2318 21.3349C36.3103 21.3375 35.564 22.0881 35.5666 23.0096C35.568 23.4705 35.7561 23.8875 36.0592 24.1889C36.3623 24.4902 36.7803 24.6761 37.2413 24.6747C38.1628 24.6721 38.9091 23.9216 38.9065 23.0001C38.9052 22.5395 38.717 22.1226 38.4139 21.8208Z" fill="#676E74"/>
<path d="M38.9064 23.0001C38.9051 22.5396 38.717 22.1226 38.4139 21.8208L36.0592 24.1889C36.3623 24.4903 36.7803 24.6761 37.2413 24.6748C38.1628 24.6721 38.9091 23.9216 38.9064 23.0001Z" fill="#474F54"/>
<path d="M20.101 40.2382L16.5667 36.7244L2.02333 51.3177L5.57371 54.8483L9.12453 58.3786L23.6679 43.7853L20.101 40.2382Z" fill="#575C60"/>
<path d="M23.6679 43.7853L20.1009 40.2382L5.57367 54.8483L9.12449 58.3786L23.6679 43.7853Z" fill="#333637"/>
<g clip-path="url(#clip0_0_102)">
<path d="M52.5241 7.63019C44.0159 -0.862684 30.3219 -0.790244 21.8621 7.71742C14.7348 14.8858 13.4969 25.9448 18.7983 34.4472L16.5669 36.7245L15.3748 42.2003L19.1389 45.9431L23.6681 43.7854L25.8995 41.5076C34.4319 46.761 45.4842 45.4937 52.6114 38.2923C61.1042 29.7841 61.0318 16.09 52.5241 7.63019Z" fill="#676E74"/>
<path d="M23.668 43.7853L25.8994 41.5076C34.4319 46.761 45.4837 45.4937 52.6113 38.2922C61.1042 29.7841 61.0317 16.09 52.5241 7.63016L16.7703 43.588L19.1384 45.943L23.668 43.7853Z" fill="#474F54"/>
<path d="M50.1893 9.97822C46.8557 6.66307 42.2571 4.62005 37.1843 4.63448C27.0387 4.66335 18.8373 12.9115 18.8662 23.0571C18.8806 28.1299 20.9498 32.7168 24.2834 36.0319C27.6175 39.3466 32.216 41.3897 37.2888 41.3752C47.4344 41.3464 55.6358 33.0982 55.6069 22.9526C55.5925 17.8798 53.5234 13.2929 50.1893 9.97822Z" fill="#64E1DC"/>
<path d="M55.6069 22.9526C55.5925 17.8798 53.5233 13.2929 50.1892 9.97821L24.2834 36.0319C27.6174 39.3466 32.216 41.3897 37.2888 41.3752C47.4344 41.3464 55.6358 33.0982 55.6069 22.9526Z" fill="#00C8C8"/>
<path d="M52.0281 22.1065C51.8634 21.833 49.3616 17.737 45.5225 14.6716C43.1745 12.7961 40.3275 11.3057 37.2033 11.3145C28.972 11.338 22.7033 21.7481 22.4402 22.1906L21.9303 23.0484L22.445 23.9032C22.6098 24.1771 25.1111 28.2731 28.9502 31.3385C31.2987 33.2135 34.1457 34.704 37.2698 34.6951C45.5011 34.6717 51.7698 24.2616 52.033 23.819L52.5424 22.9613L52.0281 22.1065Z" fill="#EFEFF4"/>
<path d="M52.033 23.819L52.5424 22.9613L52.0281 22.1065C51.8634 21.833 49.3616 17.737 45.5225 14.6716L28.9502 31.3385C31.2987 33.2135 34.1457 34.704 37.2698 34.6951C45.5011 34.6717 51.7698 24.2616 52.033 23.819Z" fill="#DADAE5"/>
<path d="M40.7678 19.454C39.858 18.549 38.6036 17.9907 37.2224 17.9947C34.4597 18.0025 32.2186 20.2563 32.2265 23.0191C32.2304 24.4007 32.7958 25.6515 33.7056 26.5561C34.6157 27.4607 35.8693 28.0189 37.2509 28.015C40.0137 28.0072 42.2547 25.7533 42.2469 22.9906C42.2429 21.6094 41.6775 20.3586 40.7678 19.454Z" fill="#64E1DC"/>
<path d="M42.2467 22.9906C42.2428 21.6094 41.6774 20.3586 40.7676 19.454L33.7054 26.5561C34.6152 27.4607 35.8692 28.019 37.2508 28.015C40.0135 28.0072 42.2546 25.7533 42.2467 22.9906Z" fill="#00C8C8"/>
<path d="M38.414 21.8208C38.1109 21.5194 37.6928 21.3336 37.2319 21.3349C36.3104 21.3375 35.5641 22.0881 35.5667 23.0096C35.568 23.4705 35.7562 23.8875 36.0593 24.1889C36.3624 24.4902 36.7804 24.6761 37.2414 24.6747C38.1629 24.6721 38.9092 23.9216 38.9065 23.0001C38.9052 22.5395 38.7171 22.1226 38.414 21.8208Z" fill="#676E74"/>
<path d="M38.9064 23.0001C38.9051 22.5396 38.7169 22.1226 38.4138 21.8208L36.0592 24.1889C36.3623 24.4903 36.7803 24.6761 37.2413 24.6748C38.1628 24.6721 38.909 23.9216 38.9064 23.0001Z" fill="#474F54"/>
<path d="M20.1009 40.2382L16.5667 36.7244L2.02332 51.3177L5.5737 54.8483L9.12451 58.3786L23.6679 43.7853L20.1009 40.2382Z" fill="#575C60"/>
<path d="M23.6681 43.7853L20.1011 40.2382L5.57385 54.8483L9.12467 58.3786L23.6681 43.7853Z" fill="#333637"/>
</g>
<defs>
<clipPath id="clip0_0_102">
<rect width="59" height="58" fill="white" transform="translate(1.00012 1)"/>
</clipPath>
</defs>
</svg>
