<svg width="58" height="58" viewBox="0 0 58 58" fill="none" xmlns="http://www.w3.org/2000/svg">
<path d="M57.6203 13.1089L57.7262 50.3265L0.72644 50.4886L0.620558 13.2711L3.95079 9.88839L54.2709 9.74523L57.6203 13.1089Z" fill="#EFEFF4"/>
<path d="M57.6203 13.1089L57.7262 50.3265L29.2263 50.4076L29.1108 9.81683L54.2709 9.74525L57.6203 13.1089Z" fill="#DADAE5"/>
<path d="M0.583984 0.397949L57.5838 0.235789L57.6231 14.0539L0.623296 14.2161L0.583984 0.397949Z" fill="#474F54"/>
<path d="M29.0839 0.316895L57.5837 0.235814L57.6231 14.0539L29.1232 14.135L29.0839 0.316895Z" fill="#32393F"/>
<path d="M7.50781 5.56012L10.7896 5.55078L10.7994 9.00531L7.51764 9.01465L7.50781 5.56012Z" fill="#FF637B"/>
<path d="M14.0714 5.54144L17.3532 5.53211L17.363 8.98664L14.0812 8.99597L14.0714 5.54144Z" fill="#FF637B"/>
<path d="M20.635 5.52277L23.9168 5.51343L23.9266 8.96796L20.6448 8.9773L20.635 5.52277Z" fill="#FF637B"/>
<path d="M41.2818 37.9071L41.3369 57.2823L31.3434 57.3107L31.334 54.0063L28.0029 54.0157L28.0123 57.3202L18.0188 57.3486L17.9637 37.9734L28.0668 29.6835L30.8319 29.6757L41.2818 37.9071Z" fill="#FF637B"/>
<path d="M11.0042 20.232L48.1404 20.1263L48.1502 23.5809L11.014 23.6865L11.0042 20.232Z" fill="#DADAE5"/>
<path d="M29.1404 20.1804L47.2767 20.1288L47.2865 23.5834L29.1502 23.635L29.1404 20.1804Z" fill="#C9C9D3"/>
<path d="M41.2817 37.907L41.3368 57.2822L30.9732 57.3117L30.9638 54.0073L29.2366 54.0122L29.1674 29.6804L30.4457 29.6767L41.2817 37.907Z" fill="#E63950"/>
<path d="M27.472 40.9125L30.9266 40.9027L30.9364 44.3572L27.4819 44.3671L27.472 40.9125Z" fill="#EFEFF4"/>
<path d="M29.1993 40.9076L30.9266 40.9027L30.9364 44.3572L29.2092 44.3621L29.1993 40.9076Z" fill="#DADAE5"/>
<path d="M45.6089 41.0422L43.432 43.4581L29.6042 31.4505L15.845 43.5365L13.6545 41.1331L29.5918 27.0883L45.6089 41.0422Z" fill="#676E74"/>
<path d="M29.16 27.0895L45.6089 41.0422L43.373 43.4582L29.1724 31.4517L29.16 27.0895Z" fill="#474F54"/>
</svg>
